<svg width="24" height="24" viewBox="0 0 24 24" fill="none" xmlns="http://www.w3.org/2000/svg">
<path d="M23.25 4.23075C22.245 2.16825 19.35 0.480755 15.9825 1.46325C14.3734 1.92806 12.9694 2.92484 12 4.29075C11.0306 2.92484 9.62668 1.92806 8.01752 1.46325C4.64252 0.495755 1.75502 2.16825 0.750022 4.23075C-0.659978 7.11825 -0.0749775 10.3658 2.49002 13.8833C4.50002 16.6358 7.37252 19.4258 11.5425 22.6658C11.6743 22.7685 11.8366 22.8244 12.0038 22.8244C12.1709 22.8244 12.3332 22.7685 12.465 22.6658C16.6275 19.4333 19.5075 16.6658 21.5175 13.8833C24.075 10.3658 24.66 7.11825 23.25 4.23075Z" fill="#B3C2C1"/>
</svg>
