<svg width="28" height="28" viewBox="0 0 28 28" fill="none" xmlns="http://www.w3.org/2000/svg">
<path d="M23.0567 16.7605H19.8001V18.4105H23.0567C23.4909 18.4105 23.8817 18.7579 23.8817 19.2355C23.8817 19.7132 23.5343 20.0605 23.0567 20.0605H2.73564C2.30143 20.0605 1.91064 20.4079 1.91064 20.8855C1.91064 21.3197 2.25801 21.7105 2.73564 21.7105H23.1001C24.4462 21.7105 25.5317 20.625 25.5317 19.2789C25.5317 17.8461 24.4027 16.7605 23.0567 16.7605Z" fill="#B3C2C1"/>
<path d="M23.6647 11.1592L22.0581 11.0289C22.0581 10.9855 23.0568 5.03684 23.2739 3.82105C23.4042 3.12631 23.6647 1.17237 26.1397 1.17237V2.82237C25.141 2.82237 25.0107 3.21316 24.9239 3.95131C24.6634 5.1671 23.6647 11.0724 23.6647 11.1592Z" fill="#B3C2C1"/>
<path d="M23.7512 5.34079H1.73675C0.911747 5.34079 0.781484 6.12237 0.911747 6.55658L3.38675 17.5855C3.51701 18.0197 3.95122 18.3671 4.42885 18.3671H21.7104C22.1446 18.3671 22.5788 18.0197 22.6657 17.5421L24.4894 6.12237C24.5328 5.73158 24.1854 5.34079 23.7512 5.34079ZM2.99596 9.03158L2.56175 7.38158C2.51833 7.16447 2.64859 6.99079 2.86569 6.99079H5.94859C6.16569 6.99079 6.3828 7.16447 6.3828 7.38158L6.55648 9.03158C6.5999 9.24868 6.42622 9.42237 6.20911 9.42237H3.47359C3.25648 9.42237 3.03938 9.24868 2.99596 9.03158ZM4.38543 13.0697C4.16833 13.0697 3.95122 12.8961 3.86438 12.6789L3.56043 11.4197C3.51701 11.2026 3.64727 11.0289 3.86438 11.0289H6.33938C6.55648 11.0289 6.77359 11.2026 6.77359 11.4197L6.90385 12.6355C6.94727 12.8526 6.77359 13.0263 6.55648 13.0263C6.5999 13.0697 4.38543 13.0697 4.38543 13.0697ZM6.99069 16.7605H5.29727C5.08017 16.7605 4.86306 16.5868 4.77622 16.3697L4.47227 15.1105C4.42885 14.8934 4.55911 14.7197 4.77622 14.7197H6.73017C6.94727 14.7197 7.16438 14.8934 7.16438 15.1105L7.29464 16.3263C7.38148 16.5434 7.2078 16.7605 6.99069 16.7605ZM11.9841 16.3263C11.9841 16.5434 11.8104 16.7171 11.5933 16.7171H9.46569C9.24859 16.7171 9.03148 16.5434 9.03148 16.3263L8.90122 15.1105C8.8578 14.8934 9.03148 14.7197 9.24859 14.7197H11.5933C11.8104 14.7197 11.9841 14.8934 11.9841 15.1105V16.3263ZM11.9841 12.6789C11.9841 12.8961 11.8104 13.0697 11.5933 13.0697H9.0749C8.8578 13.0697 8.64069 12.8961 8.64069 12.6789L8.51043 11.4632C8.46701 11.2461 8.64069 11.0724 8.8578 11.0724H11.5933C11.8104 11.0724 11.9841 11.2461 11.9841 11.4632V12.6789ZM11.9841 9.03158C11.9841 9.24868 11.8104 9.42237 11.5933 9.42237H8.68411C8.46701 9.42237 8.2499 9.24868 8.2499 9.03158L8.0328 7.38158C7.98938 7.16447 8.16306 6.99079 8.38017 6.99079H11.5499C11.767 6.99079 11.9407 7.16447 11.9407 7.38158C11.9841 7.38158 11.9841 9.03158 11.9841 9.03158ZM16.4131 16.3263C16.3696 16.5434 16.196 16.7171 15.9788 16.7171H14.0683C13.8512 16.7171 13.6775 16.5434 13.6775 16.3263V15.1105C13.6775 14.8934 13.8512 14.7197 14.0683 14.7197H16.196C16.4131 14.7197 16.5867 14.8934 16.5433 15.1105L16.4131 16.3263ZM16.8039 12.6789C16.7604 12.8961 16.5867 13.0697 16.3696 13.0697H14.0683C13.8512 13.0697 13.6775 12.8961 13.6775 12.6789V11.4632C13.6775 11.2461 13.8512 11.0724 14.0683 11.0724H16.5867C16.8039 11.0724 16.9775 11.2461 16.9341 11.4632L16.8039 12.6789ZM17.1946 9.03158C17.1512 9.24868 16.9775 9.42237 16.7604 9.42237H14.0683C13.8512 9.42237 13.6775 9.24868 13.6775 9.03158V7.38158C13.6775 7.16447 13.8512 6.99079 14.0683 6.99079H17.021C17.2381 6.99079 17.4117 7.16447 17.3683 7.38158L17.1946 9.03158ZM20.9723 16.3263C20.9288 16.5434 20.7117 16.7171 20.4946 16.7171H18.4104C18.1933 16.7171 18.0196 16.5434 18.0631 16.3263L18.1933 15.1105C18.2367 14.8934 18.4104 14.7197 18.6275 14.7197H20.842C21.0591 14.7197 21.2328 14.8934 21.1894 15.1105L20.9723 16.3263ZM21.5367 12.6789C21.4933 12.8961 21.2762 13.0697 21.0591 13.0697H18.7578C18.5407 13.0697 18.367 12.8961 18.4104 12.6789L18.5407 11.4632C18.5841 11.2461 18.7578 11.0724 18.9749 11.0724H21.3631C21.5802 11.0724 21.7538 11.2461 21.7104 11.4632L21.5367 12.6789ZM22.1012 9.03158C22.0578 9.24868 21.8407 9.42237 21.6236 9.42237H19.1486C18.9315 9.42237 18.7578 9.24868 18.8012 9.03158L18.9749 7.38158C19.0183 7.16447 19.192 6.99079 19.4091 6.99079H21.971C22.1881 6.99079 22.3617 7.16447 22.3183 7.38158L22.1012 9.03158Z" fill="#B3C2C1"/>
<path d="M5.34076 26.921C6.68368 26.921 7.77234 25.8324 7.77234 24.4895C7.77234 23.1465 6.68368 22.0579 5.34076 22.0579C3.99783 22.0579 2.90918 23.1465 2.90918 24.4895C2.90918 25.8324 3.99783 26.921 5.34076 26.921Z" fill="#404244"/>
<path d="M5.34079 25.7053C6.01225 25.7053 6.55658 25.1609 6.55658 24.4895C6.55658 23.818 6.01225 23.2737 5.34079 23.2737C4.66933 23.2737 4.125 23.818 4.125 24.4895C4.125 25.1609 4.66933 25.7053 5.34079 25.7053Z" fill="white"/>
<path d="M20.017 26.921C21.3599 26.921 22.4486 25.8324 22.4486 24.4895C22.4486 23.1465 21.3599 22.0579 20.017 22.0579C18.6741 22.0579 17.5854 23.1465 17.5854 24.4895C17.5854 25.8324 18.6741 26.921 20.017 26.921Z" fill="#404244"/>
<path d="M21.2329 24.4895C21.2329 25.1842 20.6684 25.7053 20.0171 25.7053C19.3223 25.7053 18.8013 25.1408 18.8013 24.4895C18.8013 23.7947 19.3657 23.2737 20.0171 23.2737C20.6684 23.2737 21.2329 23.7947 21.2329 24.4895Z" fill="white"/>
<path d="M26.5302 0.86842H25.3145V3.3H26.5302C26.7473 3.3 26.921 3.12631 26.921 2.90921V1.25921C26.921 1.0421 26.7473 0.86842 26.5302 0.86842Z" fill="#404244"/>
<path d="M5.34081 21.2329C3.56054 21.2329 2.08423 22.7092 2.08423 24.4895H8.59738C8.59738 22.6658 7.16449 21.2329 5.34081 21.2329Z" fill="#F5484A"/>
<path d="M20.0171 21.2329C18.2368 21.2329 16.7605 22.7092 16.7605 24.4895H23.2736C23.2736 22.6658 21.7973 21.2329 20.0171 21.2329Z" fill="#F5484A"/>
</svg>
