<svg width="24" height="25" viewBox="0 0 24 25" fill="none" xmlns="http://www.w3.org/2000/svg">
<path d="M11.0772 3.26953C10.5219 3.26953 10.1541 3.63732 10.1541 4.19261V10.6541H3.69261C3.13732 10.6541 2.76953 11.0219 2.76953 11.5772V13.4234C2.76953 13.9787 3.13732 14.3465 3.69261 14.3465H10.1541V20.808C10.1541 21.3633 10.5219 21.7311 11.0772 21.7311H12.9234C13.4787 21.7311 13.8465 21.3633 13.8465 20.808V14.3465H20.308C20.8633 14.3465 21.2311 13.9787 21.2311 13.4234V11.5772C21.2311 11.0219 20.8633 10.6541 20.308 10.6541H13.8465V4.19261C13.8465 3.63732 13.4787 3.26953 12.9234 3.26953H11.0772Z" fill="#F5484A"/>
</svg>
