<svg width="23" height="22" viewBox="0 0 23 22" fill="none" xmlns="http://www.w3.org/2000/svg">
<path d="M9.80864 2.36328C8.65518 2.36328 7.67224 3.09104 7.29997 4.09055H2.67285V5.81783H7.29997C7.67224 6.81734 8.65518 7.5451 9.80864 7.5451C11.2759 7.5451 12.4846 6.37488 12.4846 4.95419C12.4846 3.5335 11.2759 2.36328 9.80864 2.36328ZM9.80864 4.09055C10.3118 4.09055 10.7006 4.46699 10.7006 4.95419C10.7006 5.44139 10.3118 5.81783 9.80864 5.81783C9.30545 5.81783 8.91667 5.44139 8.91667 4.95419C8.91667 4.46699 9.30545 4.09055 9.80864 4.09055ZM14.2685 4.09055V5.81783H20.5123V4.09055H14.2685ZM14.2685 8.40874C13.115 8.40874 12.1321 9.1365 11.7598 10.136H2.67285V11.8633H11.7598C12.1321 12.8628 13.115 13.5906 14.2685 13.5906C15.7358 13.5906 16.9444 12.4203 16.9444 10.9996C16.9444 9.57895 15.7358 8.40874 14.2685 8.40874ZM14.2685 10.136C14.7717 10.136 15.1605 10.5124 15.1605 10.9996C15.1605 11.4868 14.7717 11.8633 14.2685 11.8633C13.7653 11.8633 13.3765 11.4868 13.3765 10.9996C13.3765 10.5124 13.7653 10.136 14.2685 10.136ZM18.7284 10.136V11.8633H20.5123V10.136H18.7284ZM7.13272 14.4542C5.97926 14.4542 4.99632 15.182 4.62404 16.1815H2.67285V17.9087H4.62404C4.99632 18.9082 5.97926 19.636 7.13272 19.636C8.60003 19.636 9.80864 18.4658 9.80864 17.0451C9.80864 15.6244 8.60003 14.4542 7.13272 14.4542ZM7.13272 16.1815C7.63591 16.1815 8.02469 16.5579 8.02469 17.0451C8.02469 17.5323 7.63591 17.9087 7.13272 17.9087C6.62953 17.9087 6.24075 17.5323 6.24075 17.0451C6.24075 16.5579 6.62953 16.1815 7.13272 16.1815ZM11.5926 16.1815V17.9087H20.5123V16.1815H11.5926Z" fill="#F5484A"/>
</svg>
