<svg width="24" height="24" viewBox="0 0 24 24" fill="none" xmlns="http://www.w3.org/2000/svg">
<g clip-path="url(#clip0_104_1814)">
<path d="M11.9996 1C3.74959 1 0.999594 5.096 0.999594 6V7C0.999594 7.552 1.44759 8 1.99959 8H21.9996C22.5516 8 22.9996 7.552 22.9996 7V6C22.9996 5.096 20.2496 1 11.9996 1ZM0.999594 10C0.867082 9.99813 0.735519 10.0226 0.612551 10.072C0.489583 10.1214 0.377661 10.1948 0.283292 10.2878C0.188922 10.3809 0.113986 10.4918 0.0628383 10.614C0.0116906 10.7363 -0.0146484 10.8675 -0.0146484 11C-0.0146484 11.1325 0.0116906 11.2637 0.0628383 11.386C0.113986 11.5082 0.188922 11.6191 0.283292 11.7122C0.377661 11.8052 0.489583 11.8786 0.612551 11.928C0.735519 11.9774 0.867082 12.0019 0.999594 12H22.9996C23.1321 12.0019 23.2637 11.9774 23.3866 11.928C23.5096 11.8786 23.6215 11.8052 23.7159 11.7122C23.8103 11.6191 23.8852 11.5082 23.9363 11.386C23.9875 11.2637 24.0138 11.1325 24.0138 11C24.0138 10.8675 23.9875 10.7363 23.9363 10.614C23.8852 10.4918 23.8103 10.3809 23.7159 10.2878C23.6215 10.1948 23.5096 10.1214 23.3866 10.072C23.2637 10.0226 23.1321 9.99813 22.9996 10H0.999594ZM1.54452 14C0.691516 14 -0.000406027 14.6919 -0.000406027 15.5449C-0.000406027 16.3989 0.691516 17.0898 1.54452 17.0898H22.4527C23.3067 17.0898 23.9976 16.3979 23.9976 15.5449C23.9986 14.6919 23.3077 14 22.4547 14H19.7008C18.9548 14 15.9996 16 15.9996 16C15.9996 16 10 14 8.191 14H1.54452ZM1.99959 19C1.44759 19 0.999594 19.448 0.999594 20V21C0.999594 22.105 1.89459 23 2.99959 23H20.9996C22.1046 23 22.9996 22.105 22.9996 21V20C22.9996 19.448 22.5516 19 21.9996 19H1.99959Z" fill="url(#paint0_linear_104_1814)"/>
</g>
<defs>
<linearGradient id="paint0_linear_104_1814" x1="12" y1="1" x2="12" y2="23.5" gradientUnits="userSpaceOnUse">
<stop offset="0.50474" stop-color="#FFA800"/>
<stop offset="0.531238" stop-color="#F54749"/>
<stop offset="0.711034" stop-color="#F44849"/>
<stop offset="0.794747" stop-color="#FFA800"/>
</linearGradient>
<clipPath id="clip0_104_1814">
<rect width="24" height="24" fill="white"/>
</clipPath>
</defs>
</svg>
